<?xml version="1.0" encoding="utf-8"?>
<!-- Generator: Adobe Illustrator 18.0.0, SVG Export Plug-In . SVG Version: 6.00 Build 0)  -->
<!DOCTYPE svg PUBLIC "-//W3C//DTD SVG 1.1//EN" "http://www.w3.org/Graphics/SVG/1.1/DTD/svg11.dtd">
<svg version="1.1" id="Layer_1" xmlns="http://www.w3.org/2000/svg" xmlns:xlink="http://www.w3.org/1999/xlink" x="0px" y="0px"
	 viewBox="-42 -37.1 106 101.1" enable-background="new -42 -37.1 106 101.1" xml:space="preserve">
<g>
	<path fill="#FFFFFF" d="M-368.1-15.6h-25.2c-1.7,0-3,1.3-3,2.9v52.3c0,1.6,1.4,2.9,3,2.9h25.2c1.7,0,3-1.3,3-2.9v-52.3
		C-365.1-14.3-366.4-15.6-368.1-15.6z M-385.1-11.1h8.8v0.6h-8.8C-385.1-10.5-385.1-11.1-385.1-11.1z M-380.7,39.5
		c-0.9,0-1.7-0.8-1.7-1.7c0-0.9,0.8-1.7,1.7-1.7s1.7,0.8,1.7,1.7C-379,38.7-379.8,39.5-380.7,39.5z M-367.2,33.1h-27.1V-7h27.1V33.1
		z"/>
</g>
<g>
	<path fill="#FFFFFF" d="M-305,52.1l-8.2-7.1l-23.3,20c0.8,0.8,2,1.3,3.3,1.3h56.4c1.3,0,2.4-0.5,3.2-1.3l-23.3-20L-305,52.1z"/>
	<path fill="#FFFFFF" d="M-273.6,20.5c-0.8-0.8-2-1.3-3.3-1.3h-56.4c-1.3,0-2.4,0.5-3.2,1.3l31.5,27L-273.6,20.5z"/>
	<polygon fill="#FFFFFF" points="-338,23.3 -338,62.4 -315.2,43.1 	"/>
	<polygon fill="#FFFFFF" points="-294.8,43.1 -272.1,62.4 -272.1,23.3 	"/>
</g>
<circle fill="#2BB673" cx="-161" cy="-129.5" r="57"/>
<path fill="#FFFFFF" d="M46.6-8.6c-2.6,1.2-5.4,1.9-8.4,2.3c3-1.8,5.3-4.7,6.4-8.1c-2.8,1.7-5.9,2.9-9.3,3.5
	c-2.7-2.8-6.5-4.6-10.6-4.6c-8.1,0-14.6,6.5-14.6,14.6c0,1.1,0.1,2.3,0.4,3.3C-1.7,1.9-12.4-4-19.6-12.8c-1.3,2.2-2,4.7-2,7.3
	c0,5.1,2.6,9.5,6.5,12.1c-2.4-0.1-4.6-0.7-6.6-1.8V5c0,7.1,5,13,11.7,14.3c-1.2,0.3-2.5,0.5-3.8,0.5c-0.9,0-1.9-0.1-2.7-0.3
	c1.9,5.8,7.2,10,13.6,10.1C-8,33.7-14.3,36-21.1,36c-1.2,0-2.3-0.1-3.5-0.2c6.5,4.1,14.1,6.6,22.4,6.6c26.8,0,41.5-22.2,41.5-41.5
	l0-1.9C42.1-3.1,44.6-5.7,46.6-8.6z"/>
<path fill="#FFFFFF" d="M-204-14.5l-7.3,0c-8.2,0-13.4,5.4-13.4,13.8v6.4h-7.3c-0.6,0-1.1,0.5-1.1,1.1v9.2c0,0.6,0.5,1.1,1.1,1.1
	h7.3v23.2c0,0.6,0.5,1.1,1.1,1.1h9.5c0.6,0,1.1-0.5,1.1-1.1V17.1h8.5c0.6,0,1.1-0.5,1.1-1.1l0-9.2c0-0.3-0.1-0.6-0.3-0.8
	c-0.2-0.2-0.5-0.3-0.8-0.3h-8.5V0.2c0-2.6,0.6-3.9,4-3.9l4.9,0c0.6,0,1.1-0.5,1.1-1.1v-8.5C-202.9-14-203.4-14.5-204-14.5z"/>
</svg>
