<?xml version="1.0" encoding="utf-8"?>
<!-- Generator: Adobe Illustrator 18.0.0, SVG Export Plug-In . SVG Version: 6.00 Build 0)  -->
<!DOCTYPE svg PUBLIC "-//W3C//DTD SVG 1.1//EN" "http://www.w3.org/Graphics/SVG/1.1/DTD/svg11.dtd">
<svg version="1.1" id="Layer_1" xmlns="http://www.w3.org/2000/svg" xmlns:xlink="http://www.w3.org/1999/xlink" x="0px" y="0px"
	 viewBox="-42 -37.1 106 101.1" enable-background="new -42 -37.1 106 101.1" xml:space="preserve">
<g>
	<path fill="#FFFFFF" d="M23.6-15.6H-1.6c-1.7,0-3,1.3-3,2.9v52.3c0,1.6,1.4,2.9,3,2.9h25.2c1.7,0,3-1.3,3-2.9v-52.3
		C26.6-14.3,25.2-15.6,23.6-15.6z M6.6-11.1h8.8v0.6H6.6C6.6-10.5,6.6-11.1,6.6-11.1z M11,39.5c-0.9,0-1.7-0.8-1.7-1.7
		c0-0.9,0.8-1.7,1.7-1.7c0.9,0,1.7,0.8,1.7,1.7C12.7,38.7,11.9,39.5,11,39.5z M24.5,33.1H-2.5V-7h27.1V33.1z"/>
</g>
<g>
	<path fill="#FFFFFF" d="M-305,52.1l-8.2-7.1l-23.3,20c0.8,0.8,2,1.3,3.3,1.3h56.4c1.3,0,2.4-0.5,3.2-1.3l-23.3-20L-305,52.1z"/>
	<path fill="#FFFFFF" d="M-273.6,20.5c-0.8-0.8-2-1.3-3.3-1.3h-56.4c-1.3,0-2.4,0.5-3.2,1.3l31.5,27L-273.6,20.5z"/>
	<polygon fill="#FFFFFF" points="-338,23.3 -338,62.4 -315.2,43.1 	"/>
	<polygon fill="#FFFFFF" points="-294.8,43.1 -272.1,62.4 -272.1,23.3 	"/>
</g>
<circle fill="#2BB673" cx="-161" cy="-129.5" r="57"/>
<path fill="#FFFFFF" d="M-89.9,11.1c-2.6,1.2-5.4,1.9-8.4,2.3c3-1.8,5.3-4.7,6.4-8.1c-2.8,1.7-5.9,2.9-9.3,3.5
	c-2.7-2.8-6.5-4.6-10.6-4.6c-8.1,0-14.6,6.5-14.6,14.6c0,1.1,0.1,2.3,0.4,3.3c-12.1-0.6-22.9-6.4-30.1-15.2c-1.3,2.2-2,4.7-2,7.3
	c0,5.1,2.6,9.5,6.5,12.1c-2.4-0.1-4.6-0.7-6.6-1.8v0.2c0,7.1,5,13,11.7,14.3c-1.2,0.3-2.5,0.5-3.8,0.5c-0.9,0-1.9-0.1-2.7-0.3
	c1.9,5.8,7.2,10,13.6,10.1c-5,3.9-11.3,6.2-18.1,6.2c-1.2,0-2.3-0.1-3.5-0.2c6.5,4.1,14.1,6.6,22.4,6.6c26.8,0,41.5-22.2,41.5-41.5
	l0-1.9C-94.3,16.6-91.8,14-89.9,11.1z"/>
<path fill="#FFFFFF" d="M-188.9,4.6l-7.3,0c-8.2,0-13.4,5.4-13.4,13.8v6.4h-7.3c-0.6,0-1.1,0.5-1.1,1.1v9.2c0,0.6,0.5,1.1,1.1,1.1
	h7.3v23.2c0,0.6,0.5,1.1,1.1,1.1h9.5c0.6,0,1.1-0.5,1.1-1.1V36.2h8.5c0.6,0,1.1-0.5,1.1-1.1l0-9.2c0-0.3-0.1-0.6-0.3-0.8
	c-0.2-0.2-0.5-0.3-0.8-0.3h-8.5v-5.4c0-2.6,0.6-3.9,4-3.9l4.9,0c0.6,0,1.1-0.5,1.1-1.1V5.7C-187.7,5.1-188.2,4.6-188.9,4.6z"/>
</svg>
