<?xml version="1.0" encoding="utf-8"?>
<!-- Generator: Adobe Illustrator 18.0.0, SVG Export Plug-In . SVG Version: 6.00 Build 0)  -->
<!DOCTYPE svg PUBLIC "-//W3C//DTD SVG 1.1//EN" "http://www.w3.org/Graphics/SVG/1.1/DTD/svg11.dtd">
<svg version="1.1" id="Capa_1" xmlns="http://www.w3.org/2000/svg" xmlns:xlink="http://www.w3.org/1999/xlink" x="0px" y="0px"
	 viewBox="0 0 13.8 23.3" enable-background="new 0 0 13.8 23.3" xml:space="preserve">
<path fill="#2BB673" d="M12.5,0H1.3C0.6,0,0,0.6,0,1.3V22c0,0.7,0.6,1.3,1.3,1.3h11.2c0.7,0,1.3-0.6,1.3-1.3V1.3
	C13.8,0.6,13.2,0,12.5,0z M6.9,22c-0.6,0-1.2-0.5-1.2-1.2s0.5-1.2,1.2-1.2s1.2,0.5,1.2,1.2S7.5,22,6.9,22z M12.3,18.4H1.5V2.9h10.9
	V18.4z M6.1,7.5H2.6V4.7h3.4C6.1,4.7,6.1,7.5,6.1,7.5z M10.7,7.5H7.3V4.7h3.4C10.7,4.7,10.7,7.5,10.7,7.5z M6.1,12H2.6V9.2h3.4
	C6.1,9.2,6.1,12,6.1,12z M10.7,12H7.3V9.2h3.4C10.7,9.2,10.7,12,10.7,12z M6.1,16.5H2.6v-2.8h3.4C6.1,13.8,6.1,16.5,6.1,16.5z
	 M10.7,16.5H7.3v-2.8h3.4C10.7,13.8,10.7,16.5,10.7,16.5z"/>
</svg>
