<!-- Generator: Adobe Illustrator 18.0.0, SVG Export Plug-In  -->
<svg version="1.1"
	 xmlns="http://www.w3.org/2000/svg" xmlns:xlink="http://www.w3.org/1999/xlink" xmlns:a="http://ns.adobe.com/AdobeSVGViewerExtensions/3.0/"
	 x="0px" y="0px" width="64.1px" height="50.8px" viewBox="0 0 64.1 50.8" enable-background="new 0 0 64.1 50.8"
	 xml:space="preserve">
<defs>
</defs>
<g>
	<path fill="#E1E1E1" d="M16.8,46.3c-2.2-1.3-4.4-3-6.7-5.1C3.4,34.8,0,27.1,0,18.2c0-5.4,1.3-9.8,3.9-13.2C6.5,1.7,10,0,14.2,0
		C18,0,21.2,1.4,24,4.1c2.7,2.7,4.1,6,4.1,9.9c0,2.9-0.7,5.2-2,7c-1.4,1.8-3.7,3.6-7.2,5.4c-3.9,2-5.8,4-5.8,6
		c0,4.8,5.1,9.9,15.3,15.3l-1.8,3C22.3,49.1,19,47.6,16.8,46.3z M45.9,41.2c-3.4-3.2-5.9-6.7-7.6-10.7c-1.7-3.9-2.6-8-2.6-12.3
		c0-5.4,1.3-9.8,3.9-13.2C42.2,1.7,45.7,0,49.9,0c3.8,0,7,1.4,9.7,4.1c2.7,2.7,4.1,6,4.1,9.9c0,2.8-0.7,5.2-2.1,7.1
		c-1.4,1.9-3.8,3.7-7.1,5.4c-2.2,1.1-3.7,2.2-4.5,3c-0.8,0.9-1.3,1.9-1.3,3c0,4.8,5.1,9.9,15.3,15.3l-1.8,3
		C55.2,48,49.8,44.8,45.9,41.2z"/>
</g>
</svg>