<?xml version="1.0" encoding="utf-8"?>
<!-- Generator: Adobe Illustrator 18.0.0, SVG Export Plug-In . SVG Version: 6.00 Build 0)  -->
<!DOCTYPE svg PUBLIC "-//W3C//DTD SVG 1.1//EN" "http://www.w3.org/Graphics/SVG/1.1/DTD/svg11.dtd">
<svg version="1.1" id="Layer_1" xmlns="http://www.w3.org/2000/svg" xmlns:xlink="http://www.w3.org/1999/xlink" x="0px" y="0px"
	 viewBox="0 0 204 54" enable-background="new 0 0 204 54" xml:space="preserve">
<g>
	<g>
		<g>
			<path fill="#FFFFFF" d="M71.2,5.7c5,0,7.9,2.5,7.9,6.9c0,4.6-2.9,7.3-7.9,7.3h-3.6v5.5h-5V5.7H71.2z M67.6,16h3.3
				c2.2,0,3.5-1.1,3.5-3.2c0-2.1-1.3-3.1-3.5-3.1h-3.3V16z"/>
			<path fill="#FFFFFF" d="M95.1,21.2v4.2H81.8V5.7h5v15.5H95.1z"/>
			<path fill="#FFFFFF" d="M115.3,17.2c0,5.2-3.5,8.5-9,8.5c-5.5,0-9.1-3.3-9.1-8.5V5.7h5v11.4c0,2.7,1.7,4.3,4.1,4.3
				c2.4,0,4-1.6,4-4.3V5.7h5V17.2z"/>
			<path fill="#FFFFFF" d="M134.2,7.7l-1.9,3.9c-2.1-1.2-4.7-2.1-6.3-2.1c-1.3,0-2.2,0.5-2.2,1.4c0,3.4,10.4,1.5,10.4,8.6
				c0,3.9-3.5,6-7.9,6c-3.3,0-6.7-1.2-9-3.2l1.9-3.9c2,1.8,5.1,3,7.1,3c1.6,0,2.6-0.6,2.6-1.7c0-3.5-10.4-1.4-10.4-8.4
				c0-3.6,3.1-5.9,7.9-5.9C129.3,5.5,132.2,6.4,134.2,7.7z"/>
			<path fill="#FFFFFF" d="M163.5,15.6c0,5.7-4.6,10.1-10.7,10.1c-6.1,0-10.6-4.3-10.6-10.1c0-5.7,4.6-10,10.6-10
				C159,5.6,163.5,9.8,163.5,15.6z M147.3,15.6c0,3.3,2.6,5.9,5.6,5.9c3,0,5.5-2.6,5.5-5.9c0-3.3-2.4-5.8-5.5-5.8
				C149.9,9.8,147.3,12.3,147.3,15.6z"/>
			<path fill="#FFFFFF" d="M179.9,25.4l-9.1-12.1v12.1h-4.7V5.7h4.4l9.1,12.2V5.7h4.7v19.7H179.9z"/>
			<path fill="#FFFFFF" d="M193.3,9.7v3.9h9.4v3.9h-9.4v4H204v3.9h-15.7V5.7h15.4v3.9H193.3z"/>
		</g>
		<g>
			<path fill="#FFFFFF" d="M71.1,34.3c6.2,0,10.5,4,10.5,9.9c0,5.8-4.3,9.9-10.7,9.9h-8.3V34.3H71.1z M67.6,50h3.6
				c3.1,0,5.3-2.4,5.3-5.8c0-3.5-2.3-5.9-5.5-5.9h-3.4V50z"/>
			<path fill="#FFFFFF" d="M94.2,38.2v3.9h9.4v3.9h-9.4v4h10.7V54H89.2V34.3h15.4v3.9H94.2z"/>
			<path fill="#FFFFFF" d="M130.6,44v7.7c-2.1,1.5-5.4,2.6-8.2,2.6c-6,0-10.5-4.3-10.5-10.1c0-5.7,4.6-10,10.9-10
				c2.9,0,6,1.1,8.1,2.9l-2.8,3.4c-1.4-1.3-3.4-2.1-5.3-2.1c-3.2,0-5.7,2.5-5.7,5.8c0,3.4,2.5,5.9,5.8,5.9c1,0,2.3-0.4,3.5-1V44
				H130.6z"/>
			<path fill="#FFFFFF" d="M148,48.4h-0.1H144V54h-5V34.3h8.8c5.2,0,8.2,2.5,8.2,6.9c0,3-1.3,5.2-3.6,6.3l4.1,6.5h-5.7L148,48.4z
				 M147.8,44.5c2.2,0,3.4-1.1,3.4-3.2c0-2.1-1.3-3.1-3.4-3.1H144v6.3H147.8z"/>
			<path fill="#FFFFFF" d="M169.4,38.2v3.9h9.4v3.9h-9.4v4h10.7V54h-15.7V34.3h15.4v3.9H169.4z"/>
			<path fill="#FFFFFF" d="M193.4,38.2v3.9h9.4v3.9h-9.4v4h10.7V54h-15.7V34.3h15.4v3.9H193.4z"/>
		</g>
	</g>
	<g>
		<g>
			<g>
				<g>
					<path fill="#FFFFFF" d="M21.7,54H12V42.3H0v-9.6h12V20.8h9.7v11.9h12v9.6h-12V54z M13,53h7.7V41.3h12v-7.7h-12V21.7H13v11.9H1
						v7.7h12V53z"/>
				</g>
			</g>
			<g>
				<path fill="#FFFFFF" d="M42.9,10.8c0.3,0,0.6,0,0.8-0.1v-5h-5.4c0,0.2,0,0.3,0,0.5c0,0.2,0,0.3,0,0.5h4.4v4.1
					C42.9,10.8,42.9,10.8,42.9,10.8z"/>
				<path fill="#FFFFFF" d="M42.9,12.9c0,0-0.1,0-0.1,0V53h-9V26.1l0.1-4.5l0.2-6.1l-0.9,0.9c-1.6,1.6-2.8,2.7-3.4,3.2l-5.1,4.1
					l-4.2-5.3L35.2,6.7h0.9c0-0.2,0-0.3,0-0.5c0-0.2,0-0.3,0-0.5h-1.3L19.2,18.2l5.4,6.8l5.8-4.7c0.5-0.4,1.4-1.2,2.6-2.5l-0.1,3.7
					l-0.1,4.5V54h11V12.9C43.5,12.9,43.2,12.9,42.9,12.9z"/>
			</g>
		</g>
		<g>
			<path fill="#FFFFFF" d="M42.9,12.3c-3.4,0-6.2-2.8-6.2-6.2c0-3.4,2.8-6.2,6.2-6.2c3.4,0,6.2,2.8,6.2,6.2
				C49.1,9.6,46.3,12.3,42.9,12.3z M42.9,1c-2.9,0-5.2,2.3-5.2,5.2c0,2.9,2.3,5.2,5.2,5.2c2.9,0,5.2-2.3,5.2-5.2
				C48.2,3.3,45.8,1,42.9,1z"/>
		</g>
	</g>
</g>
</svg>
