<?xml version="1.0" encoding="utf-8"?>
<!-- Generator: Adobe Illustrator 18.0.0, SVG Export Plug-In . SVG Version: 6.00 Build 0)  -->
<!DOCTYPE svg PUBLIC "-//W3C//DTD SVG 1.1//EN" "http://www.w3.org/Graphics/SVG/1.1/DTD/svg11.dtd">
<svg version="1.1" id="Layer_1" xmlns="http://www.w3.org/2000/svg" xmlns:xlink="http://www.w3.org/1999/xlink" x="0px" y="0px"
	 viewBox="0 0 204 54.2" enable-background="new 0 0 204 54.2" xml:space="preserve">
<g>
	<g>
		<g>
			<path fill="#939598" d="M71.2,5.7c5,0,7.9,2.5,7.9,6.9c0,4.6-2.9,7.3-7.9,7.3h-3.6v5.5h-5V5.7H71.2z M67.6,16h3.3
				c2.2,0,3.5-1.1,3.5-3.2c0-2.1-1.3-3.1-3.5-3.1h-3.3V16z"/>
			<path fill="#939598" d="M95.1,21.2v4.2H81.8V5.7h5v15.5H95.1z"/>
			<path fill="#939598" d="M115.3,17.2c0,5.2-3.5,8.5-9,8.5c-5.5,0-9.1-3.3-9.1-8.5V5.7h5v11.4c0,2.7,1.7,4.3,4.1,4.3
				c2.4,0,4-1.6,4-4.3V5.7h5V17.2z"/>
			<path fill="#939598" d="M134.2,7.7l-1.9,3.9c-2.1-1.2-4.7-2.1-6.3-2.1c-1.3,0-2.2,0.5-2.2,1.4c0,3.4,10.4,1.5,10.4,8.6
				c0,3.9-3.5,6-7.9,6c-3.3,0-6.7-1.2-9-3.2l1.9-3.9c2,1.8,5.1,3,7.1,3c1.6,0,2.6-0.6,2.6-1.7c0-3.5-10.4-1.4-10.4-8.4
				c0-3.6,3.1-5.9,7.9-5.9C129.3,5.5,132.2,6.4,134.2,7.7z"/>
			<path fill="#939598" d="M163.5,15.6c0,5.7-4.6,10.1-10.7,10.1c-6.1,0-10.6-4.3-10.6-10.1c0-5.7,4.6-10,10.6-10
				C159,5.6,163.5,9.8,163.5,15.6z M147.3,15.6c0,3.3,2.6,5.9,5.6,5.9c3,0,5.5-2.6,5.5-5.9c0-3.3-2.4-5.8-5.5-5.8
				C149.9,9.8,147.3,12.3,147.3,15.6z"/>
			<path fill="#939598" d="M179.9,25.4l-9.1-12.1v12.1h-4.7V5.7h4.4l9.1,12.2V5.7h4.7v19.7H179.9z"/>
			<path fill="#939598" d="M193.3,9.7v3.9h9.4v3.9h-9.4v4H204v3.9h-15.7V5.7h15.4v3.9H193.3z"/>
		</g>
		<g>
			<path fill="#2BB673" d="M71.1,34.3c6.2,0,10.5,4,10.5,9.9c0,5.8-4.3,9.9-10.7,9.9h-8.3V34.3H71.1z M67.6,50h3.6
				c3.1,0,5.3-2.4,5.3-5.8c0-3.5-2.3-5.9-5.5-5.9h-3.4V50z"/>
			<path fill="#2BB673" d="M94.2,38.2v3.9h9.4v3.9h-9.4v4h10.7V54H89.2V34.3h15.4v3.9H94.2z"/>
			<path fill="#2BB673" d="M130.6,44v7.7c-2.1,1.5-5.4,2.6-8.2,2.6c-6,0-10.5-4.3-10.5-10.1c0-5.7,4.6-10,10.9-10
				c2.9,0,6,1.1,8.1,2.9l-2.8,3.4c-1.4-1.3-3.4-2.1-5.3-2.1c-3.2,0-5.7,2.5-5.7,5.8c0,3.4,2.5,5.9,5.8,5.9c1,0,2.3-0.4,3.5-1V44
				H130.6z"/>
			<path fill="#2BB673" d="M148,48.4h-0.1H144V54h-5V34.3h8.8c5.2,0,8.2,2.5,8.2,6.9c0,3-1.3,5.2-3.6,6.3l4.1,6.5h-5.7L148,48.4z
				 M147.8,44.5c2.2,0,3.4-1.1,3.4-3.2c0-2.1-1.3-3.1-3.4-3.1H144v6.3H147.8z"/>
			<path fill="#2BB673" d="M169.4,38.2v3.9h9.4v3.9h-9.4v4h10.7V54h-15.7V34.3h15.4v3.9H169.4z"/>
			<path fill="#2BB673" d="M193.4,38.2v3.9h9.4v3.9h-9.4v4h10.7V54h-15.7V34.3h15.4v3.9H193.4z"/>
		</g>
	</g>
	<g>
		<g>
			<g>
				<g>
					<path fill="#2BB673" d="M21.7,54H12V42.3H0v-9.6h12V20.8h9.7v11.9h12v9.6h-12V54z M13,53h7.7V41.3h12v-7.7h-12V21.7H13v11.9H1
						v7.7h12V53z"/>
				</g>
			</g>
			<g>
				<path fill="#2BB673" d="M42.9,10.8c0.3,0,0.6,0,0.8-0.1v-5h-5.4c0,0.2,0,0.3,0,0.5c0,0.2,0,0.3,0,0.5h4.4v4.1
					C42.9,10.8,42.9,10.8,42.9,10.8z"/>
				<path fill="#2BB673" d="M42.9,12.9c0,0-0.1,0-0.1,0V53h-9V26.1l0.1-4.5l0.2-6.1l-0.9,0.9c-1.6,1.6-2.8,2.7-3.4,3.2l-5.1,4.1
					l-4.2-5.3L35.2,6.7h0.9c0-0.2,0-0.3,0-0.5c0-0.2,0-0.3,0-0.5h-1.3L19.2,18.2l5.4,6.8l5.8-4.7c0.5-0.4,1.4-1.2,2.6-2.5l-0.1,3.7
					l-0.1,4.5V54h11V12.9C43.5,12.9,43.2,12.9,42.9,12.9z"/>
			</g>
		</g>
		<g>
			<path fill="#2BB673" d="M42.9,12.3c-3.4,0-6.2-2.8-6.2-6.2c0-3.4,2.8-6.2,6.2-6.2c3.4,0,6.2,2.8,6.2,6.2
				C49.1,9.6,46.3,12.3,42.9,12.3z M42.9,1c-2.9,0-5.2,2.3-5.2,5.2c0,2.9,2.3,5.2,5.2,5.2c2.9,0,5.2-2.3,5.2-5.2
				C48.2,3.3,45.8,1,42.9,1z"/>
		</g>
	</g>
</g>
<g>
	<g>
		<g>
			<path fill="#939598" d="M-229.3,53.7c5,0,7.9,2.5,7.9,6.9c0,4.6-2.9,7.3-7.9,7.3h-3.6v5.5h-5V53.7H-229.3z M-232.8,64h3.3
				c2.2,0,3.5-1.1,3.5-3.2c0-2.1-1.3-3.1-3.5-3.1h-3.3V64z"/>
			<path fill="#939598" d="M-205.3,69.3v4.2h-13.4V53.7h5v15.5H-205.3z"/>
			<path fill="#939598" d="M-185.2,65.2c0,5.2-3.5,8.5-9,8.5c-5.5,0-9.1-3.3-9.1-8.5V53.7h5v11.4c0,2.7,1.7,4.3,4.1,4.3
				c2.4,0,4-1.6,4-4.3V53.7h5V65.2z"/>
			<path fill="#939598" d="M-166.3,55.7l-1.9,3.9c-2.1-1.2-4.7-2.1-6.3-2.1c-1.3,0-2.2,0.5-2.2,1.4c0,3.4,10.4,1.5,10.4,8.6
				c0,3.9-3.5,6-7.9,6c-3.3,0-6.7-1.2-9-3.2l1.9-3.9c2,1.8,5.1,3,7.1,3c1.6,0,2.6-0.6,2.6-1.7c0-3.5-10.4-1.4-10.4-8.4
				c0-3.6,3.1-5.9,7.9-5.9C-171.2,53.5-168.3,54.4-166.3,55.7z"/>
			<path fill="#939598" d="M-136.9,63.6c0,5.7-4.6,10.1-10.7,10.1c-6.1,0-10.6-4.3-10.6-10.1c0-5.7,4.6-10,10.6-10
				C-141.5,53.6-136.9,57.9-136.9,63.6z M-153.1,63.6c0,3.3,2.6,5.9,5.6,5.9c3,0,5.5-2.6,5.5-5.9c0-3.3-2.4-5.8-5.5-5.8
				C-150.6,57.8-153.1,60.3-153.1,63.6z"/>
			<path fill="#939598" d="M-120.5,73.5l-9.1-12.1v12.1h-4.7V53.7h4.4l9.1,12.2V53.7h4.7v19.7H-120.5z"/>
			<path fill="#939598" d="M-107.2,57.7v3.9h9.4v3.9h-9.4v4h10.7v3.9h-15.7V53.7h15.4v3.9H-107.2z"/>
		</g>
		<g>
			<path fill="#FFFFFF" d="M-229.4,82.3c6.2,0,10.5,4,10.5,9.9c0,5.8-4.3,9.9-10.7,9.9h-8.3V82.3H-229.4z M-232.8,98h3.6
				c3.1,0,5.3-2.4,5.3-5.8c0-3.5-2.3-5.9-5.5-5.9h-3.4V98z"/>
			<path fill="#FFFFFF" d="M-206.3,86.2v3.9h9.4v3.9h-9.4v4h10.7v3.9h-15.7V82.3h15.4v3.9H-206.3z"/>
			<path fill="#FFFFFF" d="M-169.9,92v7.7c-2.1,1.5-5.4,2.6-8.2,2.6c-6,0-10.5-4.3-10.5-10.1c0-5.7,4.6-10,10.9-10
				c2.9,0,6,1.1,8.1,2.9l-2.8,3.4c-1.4-1.3-3.4-2.1-5.3-2.1c-3.2,0-5.7,2.5-5.7,5.8c0,3.4,2.5,5.9,5.8,5.9c1,0,2.3-0.4,3.5-1V92
				H-169.9z"/>
			<path fill="#FFFFFF" d="M-152.5,96.4h-0.1h-3.8v5.5h-5V82.3h8.8c5.2,0,8.2,2.5,8.2,6.9c0,3-1.3,5.2-3.6,6.3l4.1,6.5h-5.7
				L-152.5,96.4z M-152.6,92.5c2.2,0,3.4-1.1,3.4-3.2c0-2.1-1.3-3.1-3.4-3.1h-3.8v6.3H-152.6z"/>
			<path fill="#FFFFFF" d="M-131,86.2v3.9h9.4v3.9h-9.4v4h10.7v3.9h-15.7V82.3h15.4v3.9H-131z"/>
			<path fill="#FFFFFF" d="M-107.1,86.2v3.9h9.4v3.9h-9.4v4h10.7v3.9h-15.7V82.3h15.4v3.9H-107.1z"/>
		</g>
	</g>
	<g>
		<g>
			<g>
				<g>
					<path fill="#FFFFFF" d="M-278.7,102h-9.7V90.3h-12v-9.6h12V68.8h9.7v11.9h12v9.6h-12V102z M-287.5,101h7.7V89.3h12v-7.7h-12
						V69.7h-7.7v11.9h-12v7.7h12V101z"/>
				</g>
			</g>
			<g>
				<path fill="#FFFFFF" d="M-257.5,58.8c0.3,0,0.6,0,0.8-0.1v-5h-5.4c0,0.2,0,0.3,0,0.5c0,0.2,0,0.3,0,0.5h4.4v4.1
					C-257.6,58.8-257.6,58.8-257.5,58.8z"/>
				<path fill="#FFFFFF" d="M-257.5,61c0,0-0.1,0-0.1,0V101h-9V74.1l0.1-4.5l0.2-6.1l-0.9,0.9c-1.6,1.6-2.8,2.7-3.4,3.2l-5.1,4.1
					l-4.2-5.3l14.7-11.7h0.9c0-0.2,0-0.3,0-0.5c0-0.2,0-0.3,0-0.5h-1.3l-15.8,12.5l5.4,6.8l5.8-4.7c0.5-0.4,1.4-1.2,2.6-2.5
					l-0.1,3.7l-0.1,4.5V102h11V60.9C-256.9,60.9-257.2,61-257.5,61z"/>
			</g>
		</g>
		<g>
			<path fill="#FFFFFF" d="M-257.5,60.3c-3.4,0-6.2-2.8-6.2-6.2c0-3.4,2.8-6.2,6.2-6.2c3.4,0,6.2,2.8,6.2,6.2
				C-251.3,57.6-254.1,60.3-257.5,60.3z M-257.5,49c-2.9,0-5.2,2.3-5.2,5.2c0,2.9,2.3,5.2,5.2,5.2c2.9,0,5.2-2.3,5.2-5.2
				C-252.3,51.3-254.6,49-257.5,49z"/>
		</g>
	</g>
</g>
<g>
	<g>
		<text transform="matrix(1 0 0 1 -238.6649 -21.4236)" fill="#939598" font-family="'Montserrat-Bold'" font-size="28.1484">PLUS ONE</text>
		<text transform="matrix(1 0 0 1 -238.6649 7.1157)" fill="#2BB673" font-family="'Montserrat-Bold'" font-size="28.1484">DEGREE</text>
	</g>
	<g>
		<g>
			<g>
				<g>
					<path fill="#2BB673" d="M-277.6,7.1h-9.7V-4.6h-12v-9.6h12v-11.9h9.7v11.9h12v9.6h-12V7.1z M-286.3,6.2h7.7V-5.5h12v-7.7h-12
						v-11.9h-7.7v11.9h-12v7.7h12V6.2z"/>
				</g>
			</g>
			<g>
				<path fill="#2BB673" d="M-256.4-36.1c0.3,0,0.6,0,0.8-0.1v-5h-5.4c0,0.2,0,0.3,0,0.5c0,0.2,0,0.3,0,0.5h4.4v4.1
					C-256.4-36.1-256.4-36.1-256.4-36.1z"/>
				<path fill="#2BB673" d="M-256.4-33.9c0,0-0.1,0-0.1,0V6.2h-9v-26.9l0.1-4.5l0.2-6.1l-0.9,0.9c-1.6,1.6-2.8,2.7-3.4,3.2l-5.1,4.1
					l-4.2-5.3l14.7-11.7h0.9c0-0.2,0-0.3,0-0.5c0-0.2,0-0.3,0-0.5h-1.3l-15.8,12.5l5.4,6.8l5.8-4.7c0.5-0.4,1.4-1.2,2.6-2.5
					l-0.1,3.7l-0.1,4.5V7.1h11V-34C-255.8-33.9-256.1-33.9-256.4-33.9z"/>
			</g>
		</g>
		<g>
			<path fill="#2BB673" d="M-256.4-34.5c-3.4,0-6.2-2.8-6.2-6.2c0-3.4,2.8-6.2,6.2-6.2c3.4,0,6.2,2.8,6.2,6.2
				C-250.2-37.3-253-34.5-256.4-34.5z M-256.4-45.9c-2.9,0-5.2,2.3-5.2,5.2c0,2.9,2.3,5.2,5.2,5.2c2.9,0,5.2-2.3,5.2-5.2
				C-251.2-43.6-253.5-45.9-256.4-45.9z"/>
		</g>
	</g>
</g>
</svg>
