<?xml version="1.0" encoding="utf-8"?>
<!-- Generator: Adobe Illustrator 18.0.0, SVG Export Plug-In . SVG Version: 6.00 Build 0)  -->
<!DOCTYPE svg PUBLIC "-//W3C//DTD SVG 1.1//EN" "http://www.w3.org/Graphics/SVG/1.1/DTD/svg11.dtd">
<svg version="1.1" id="Artwork" xmlns="http://www.w3.org/2000/svg" xmlns:xlink="http://www.w3.org/1999/xlink" x="0px" y="0px"
	 viewBox="0 0 512 512" enable-background="new 0 0 512 512" xml:space="preserve">
<g>
	<path fill="#2BB673" d="M65.2,214.6c15.7,0,29.8-9.4,35.9-23.9c25-59.6,83.8-101.6,152.4-101.6c37.8,0,72.4,13,100.2,34.4
		l-21.8,3.4c-7.4,1.2-13.2,7.1-14.2,14.5c-1,7.5,3,14.7,9.9,17.8l119.7,53.9c5.2,2.4,11.3,1.9,16.2-1.2c4.8-3.1,7.8-8.5,7.8-14.2
		l0.6-131.9c0-7.5-4.9-14.1-12-16.3c-7.2-2.2-14.9,0.6-19.1,6.8l-16.5,24.8C380.2,37.8,319.9,11,253.4,11C152.6,11,66,72.6,29,160.1
		c-5.1,12.1-3.8,26,3.4,37C39.7,208,52,214.6,65.2,214.6z"/>
	<path fill="#2BB673" d="M474.5,312.2c-7.3-11-19.6-17.6-32.7-17.6c-15.7,0-29.8,9.4-35.9,23.9c-25,59.6-83.8,101.6-152.4,101.6
		c-37.8,0-72.4-13-100.2-34.4l21.8-3.4c7.4-1.2,13.2-7.1,14.2-14.5c1-7.5-3-14.7-9.9-17.8L59.6,296.1c-5.3-2.4-11.3-1.9-16.2,1.2
		c-4.8,3.1-7.8,8.5-7.8,14.2L35,443.4c0,7.5,4.8,14.1,12,16.3c7.2,2.2,14.9-0.6,19.1-6.8l16.5-24.8c44,43.3,104.3,70.1,170.8,70.1
		c100.8,0,187.5-61.6,224.4-149.1C483,337,481.7,323.2,474.5,312.2z"/>
</g>
</svg>
