<?xml version="1.0" encoding="utf-8"?>
<!-- Generator: Adobe Illustrator 18.0.0, SVG Export Plug-In . SVG Version: 6.00 Build 0)  -->
<!DOCTYPE svg PUBLIC "-//W3C//DTD SVG 1.1//EN" "http://www.w3.org/Graphics/SVG/1.1/DTD/svg11.dtd">
<svg version="1.1" id="Layer_1" xmlns="http://www.w3.org/2000/svg" xmlns:xlink="http://www.w3.org/1999/xlink" x="0px" y="0px"
	 viewBox="0 0 156 166" enable-background="new 0 0 156 166" xml:space="preserve">
<path fill="#2DB674" d="M60.4,44.3v4v26.1H12.3V48.4h4l4-4h4l-4,4h6l4-4h4l-4,4h6l4-4h4l-4,4h6l4-4h4l-4,4h6L60.4,44.3z M57.1,26.5
	l-3.8,1.2l5,2.6L57.1,26.5z M14.3,46.3c1.1,0,2-0.9,2-2s-0.9-2-2-2c-1.1,0-2,0.9-2,2S13.2,46.3,14.3,46.3z M20,42.5l2.5,1.3
	l36.3-11.5l-0.6-1.9l-5.7,1.8l-5-2.6l-3.8,1.2l5,2.6l-5.7,1.8l-5-2.6l-3.8,1.2l5,2.6l-5.7,1.8l-5-2.6l-3.8,1.2l5,2.6l-5.7,1.8
	l-5-2.6L15,39.9L20,42.5L20,42.5z"/>
<path fill="#2DB674" d="M46.9,129.1h-2.8c-0.5,0-0.9-0.3-1.1-0.8l-1.1-2.5c-0.6-1.3-1.9-2.1-3.3-2.1h-0.7v-0.6
	c0.3,0,0.6-0.3,0.6-0.6v-1.2h1.8c1.6,0,3-1.3,3-3v-11.9c0-1.6-1.3-3-3-3h-9.6c-1.6,0-3,1.3-3,3v11.9c0,1.6,1.3,3,3,3h1.8v1.2
	c0,0.3,0.3,0.6,0.6,0.6v0.6h-0.7c-1.4,0-2.7,0.8-3.3,2.1l-1.1,2.5c-0.2,0.5-0.6,0.8-1.1,0.8h-5.4c-0.2,0-0.4-0.1-0.5-0.3l-0.1-0.2
	c-0.2-0.4-0.6-0.7-1.1-0.7H19c-0.5,0-0.9,0.3-1.1,0.7l-0.1,0.2c-0.1,0.2-0.3,0.3-0.5,0.3h-0.8c-2.3,0-4.2,1.9-4.2,4.2V150
	c0,2.3,1.9,4.2,4.2,4.2h30.4c2.3,0,4.2-1.9,4.2-4.2v-16.7C51.1,130.9,49.2,129.1,46.9,129.1z M30.8,112.3c-1,0-1.8-0.8-1.8-1.8v-4.2
	c0-1,0.8-1.8,1.8-1.8h9.6c1,0,1.8,0.8,1.8,1.8v4.2c0,1-0.8,1.8-1.8,1.8H30.8z M34.9,123.1h1.2v0.6h-1.2V123.1z M24.5,136.2
	c-0.8,0-1.5-0.7-1.5-1.5s0.7-1.5,1.5-1.5c0.8,0,1.5,0.7,1.5,1.5S25.3,136.2,24.5,136.2z M35.2,150.6c-5.1,0-9.3-4.1-9.3-9.3
	c0-5.1,4.1-9.3,9.3-9.3c5.1,0,9.3,4.1,9.3,9.3C44.5,146.4,40.4,150.6,35.2,150.6z M42.7,141.3c0,4.1-3.3,7.5-7.5,7.5
	s-7.5-3.3-7.5-7.5c0-4.1,3.3-7.5,7.5-7.5S42.7,137.2,42.7,141.3z"/>
<path fill="#2DB674" d="M94.5,103l4.1,46.3l18.5,5.1l18.6-5.2l4.1-46.3H94.5z M132.2,146.4l-14.9,4.1v0l0,0l0,0v0l-14.9-4.1
	l-3.5-39.6h37L132.2,146.4z M124.2,129.7l-0.7,7.4l-6.3,1.7l0,0l-6.3-1.7l-0.4-4.5h-5.7l0.8,8.9l11.6,3.2h0h0l0,0l11.6-3.2l1.6-17.4
	h-20.7l-0.5-5.8h21.7h0l0.5-5.7h-28.5l1.5,17.2L124.2,129.7L124.2,129.7z"/>
<g>
	<g>
		<path fill="#2DB674" d="M117.2,44.2c-0.4,1.4-1.4,4.7-3,10.1h6.1L117.2,44.2z"/>
		<path fill="#2DB674" d="M143.5,27.3H97.9c-0.8,0-1.5,0.7-1.5,1.5v45.6c0,0.8,0.7,1.5,1.5,1.5h45.6c0.8,0,1.5-0.7,1.5-1.5V28.8
			C144.9,28,144.3,27.3,143.5,27.3z M123.1,64.1l-1.7-5.6h-8.5l-1.7,5.6h-5.3l8.3-23.5h6.1l8.3,23.5H123.1z M135.3,64.1h-4.9V46.2
			h4.9V64.1z M134.8,43.3c-0.4,0.4-1.1,0.6-2,0.6c-1.8,0-2.7-0.8-2.7-2.4c0-1.6,0.9-2.4,2.7-2.4c1.8,0,2.7,0.8,2.7,2.4
			C135.5,42.3,135.3,42.9,134.8,43.3z"/>
	</g>
</g>
</svg>
